<?xml version="1.0" encoding="UTF-8" standalone="no"?>
<!--part of the rodentia icon theme by sixsixfive released under CC0 (https://creativecommons.org/publicdomain/zero/1.0/) on openclipart-->
<svg xmlns="http://www.w3.org/2000/svg" xmlns:xlink="http://www.w3.org/1999/xlink" viewBox="0 0 48 48">
 <defs id="0">
  <linearGradient id="2">
   <stop id="G" stop-color="#d3d7cf"/>
   <stop id="H" offset="1" stop-color="#eeeeec"/>
  </linearGradient>
  <linearGradient id="3">
   <stop id="I" stop-color="#2e3436"/>
   <stop id="J" offset="1" stop-color="#2e3436" stop-opacity="0"/>
  </linearGradient>
  <linearGradient id="4">
   <stop id="K" stop-color="#eeeeec"/>
   <stop id="L" offset="1" stop-color="#eeeeec" stop-opacity="0"/>
  </linearGradient>
  <linearGradient id="5">
   <stop id="M" stop-color="#fff" stop-opacity="0.8"/>
   <stop id="N" offset="1" stop-color="#fff" stop-opacity="0"/>
  </linearGradient>
  <radialGradient cx="24.377" cy="45.941" r="23.08" id="6" xlink:href="#3" gradientUnits="userSpaceOnUse" gradientTransform="matrix(1,0,0,0.1455399,0,39.255173)"/>
  <linearGradient y1="4.219" x2="0" y2="43.781" id="7" xlink:href="#5" gradientUnits="userSpaceOnUse"/>
  <linearGradient x1="4.094" y1="-58.01" x2="15.298" y2="33.906" id="8" xlink:href="#4" gradientUnits="userSpaceOnUse" gradientTransform="translate(0,-1.4999995)"/>
  <radialGradient cx="24.12" cy="38.744" r="12.451" id="9" xlink:href="#2" gradientUnits="userSpaceOnUse" gradientTransform="matrix(2.3597545,-1.5137067,1.52914,1.9674968,-90.537107,1.3335031)"/>
 </defs>
 <g id="1">
  <path d="m 47.453955,45.941494 a 23.076923,3.3586134 0 1 1 -46.153847,0 23.076923,3.3586134 0 1 1 46.153847,0 z" transform="translate(-0.37703133,-2.8001078)" id="A" opacity="0.8" fill="url(#6)"/>
  <rect width="42" height="42" x="3" y="1.5" id="B" fill="#445800" rx="6"/>
  <path d="M 9,4.09375 C 6.2608771,4.09375 4.09375,6.2608771 4.09375,9 l 0,30 c 0,2.739123 2.1671271,4.90625 4.90625,4.90625 l 30,0 c 2.739123,0 4.90625,-2.167127 4.90625,-4.90625 l 0,-30 C 43.90625,6.2608771 41.739123,4.09375 39,4.09375 l -30,0 z" transform="translate(0,-1.4999995)" id="C" fill="#8bb300"/>
  <g transform="translate(-0.133103,-0.6019956)" id="D">
   <path d="M 36.962803,8.8591318 19.692747,11.894258 c -0.290225,0.05359 -0.48879,0.28441 -0.489495,0.54374 l -0.01557,17.0035 c -0.918079,-0.576038 -2.066352,-0.919709 -3.312934,-0.919709 -3.005273,0 -5.444423,1.991639 -5.444423,4.444924 0,2.453283 2.43915,4.442902 5.444423,4.442902 3.005276,0 5.444425,-1.989619 5.444425,-4.442902 l 0,-16.118154 14.359766,-3.08052 0,12.712198 C 34.74826,25.873971 33.568254,25.509994 32.2859,25.509994 c -3.005275,0 -5.444424,1.991641 -5.444424,4.444924 0,2.453284 2.439149,4.444924 5.444424,4.444924 3.005275,0 5.444425,-1.99164 5.444425,-4.444924 L 37.834711,9.6797958 c 0.05746,-0.832052 -0.318232,-0.933881 -0.871908,-0.820664 z" id="O" fill="#445800"/>
   <path d="M 34.90625,7.71875 C 34.642778,7.690398 34.408962,7.708698 34.21875,7.75 34.21015,7.75187 34.1959,7.74811 34.1875,7.75 L 18.5,10.8125 c -0.745323,0.151483 -1.310646,0.875082 -1.3125,1.625 l 0,15.28125 c -0.602369,-0.181513 -1.243208,-0.28125 -1.90625,-0.28125 -3.265798,-1e-6 -6.0625,2.405596 -6.0625,5.53125 0,3.125652 2.796702,5.53125 6.0625,5.53125 3.2658,0 6.03125,-2.414985 6.03125,-5.53125 l 0,-15.25 10.84375,-2.5625 0,9.5625 c -0.615618,-0.19589 -1.28224,-0.3125 -1.96875,-0.3125 -3.274234,-1e-6 -6.0625,2.436848 -6.0625,5.5625 1e-6,3.125652 2.796701,5.53125 6.0625,5.53125 3.2658,10e-7 6.03125,-2.414984 6.03125,-5.53125 L 36.3125,9.75 c 0.0013,-0.020074 -10e-4,-0.042249 0,-0.0625 C 36.340331,9.1378363 36.275553,8.5204371 35.75,8.0625 35.477542,7.8250958 35.181675,7.748388 34.90625,7.71875 z" transform="matrix(1.1007255,0,0,1,-0.9285634,0)" id="P" fill="#638000"/>
   <path d="M 36.962803,8.8591318 19.692747,11.894258 c -0.290225,0.05359 -0.48879,0.28441 -0.489495,0.54374 l -0.01557,17.0035 c -0.918079,-0.576038 -2.066352,-0.919709 -3.312934,-0.919709 -3.005273,0 -5.444423,1.991639 -5.444423,4.444924 0,2.453283 2.43915,4.442902 5.444423,4.442902 3.005276,0 5.444425,-1.989619 5.444425,-4.442902 l 0,-16.118154 14.359766,-3.08052 0,12.712198 C 34.74826,25.873971 33.568254,25.509994 32.2859,25.509994 c -3.005275,0 -5.444424,1.991641 -5.444424,4.444924 0,2.453284 2.439149,4.444924 5.444424,4.444924 3.005275,0 5.444425,-1.99164 5.444425,-4.444924 L 37.834711,9.6797958 c 0.05746,-0.832052 -0.318232,-0.933881 -0.871908,-0.820664 z" id="Q" fill="url(#9)"/>
  </g>
  <path d="M 9,4.71875 C 6.5943852,4.71875 4.71875,6.5943852 4.71875,9 l 0,30 c 0,2.405615 1.8756352,4.28125 4.28125,4.28125 l 30,0 c 2.405615,0 4.28125,-1.875635 4.28125,-4.28125 l 0,-30 C 43.28125,6.5943852 41.405615,4.71875 39,4.71875 l -30,0 z" transform="translate(0,-1.4999995)" id="E" opacity="0.8" fill="none" stroke="url(#7)" stroke-linecap="round" stroke-dashoffset="30"/>
  <path d="m 9,2.5937505 c -2.7391229,0 -4.90625,2.1671271 -4.90625,4.90625 l 0,17.1562505 c 12.085208,-5.133143 25.680845,-9.569523 39.8125,-12.53125 l 0,-4.6250005 c 0,-2.7391229 -2.167127,-4.90625 -4.90625,-4.90625 l -30,0 0,0 z" id="F" opacity="0.6" fill="url(#8)"/>
 </g>
</svg>
